# xmcd
#
# Track frame offsets:
#	150
#	17065
#	30082
#	46630
#	61872
#
# Disc length: 1049 seconds
#
# Revision: 1
# Processed by: cddbd v1.5.2PL0 Copyright (c) Steve Scherf et al.
# Submitted via: audiograbber 1.83.01
#
DISCID=29041705
DTITLE=Big Bad Girls - Big Bad Girls (Mini-Album)
DYEAR=1995
DGENRE=Pop
TTITLE0=Kuu Ja Sormes Ihollain
TTITLE1=60-Luvun Gimmat
TTITLE2=Mielikuvitus On Aina Paikallaan
TTITLE3=Black Cat
TTITLE4=T‰‰ Juttu Toimii
EXTD=TR.
EXTT0=
EXTT1=
EXTT2=
EXTT3=
EXTT4=
PLAYORDER=
